<svg width="22" height="23" viewBox="0 0 22 23" fill="none" xmlns="http://www.w3.org/2000/svg">
<path d="M8.07788 0.741936C8.07788 0.332177 8.40495 0 8.80841 0H13.1916C13.5951 0 13.9221 0.332176 13.9221 0.741935V6.35972L18.7125 3.55082C19.0619 3.34594 19.5087 3.46753 19.7104 3.82239L21.902 7.6776C22.1037 8.03246 21.984 8.48622 21.6346 8.6911L16.8442 11.5L21.6346 14.3089C21.984 14.5138 22.1037 14.9675 21.902 15.3224L19.7104 19.1776C19.5087 19.5325 19.0619 19.6541 18.7125 19.4492L13.9221 16.6403V22.2581C13.9221 22.6678 13.5951 23 13.1916 23H8.80841C8.40495 23 8.07788 22.6678 8.07788 22.2581V16.6403L3.28752 19.4492C2.93812 19.654 2.49133 19.5325 2.2896 19.1776L0.0980056 15.3224C-0.103725 14.9675 0.0159909 14.5138 0.365398 14.3089L5.15574 11.5L0.365388 8.69111C0.0159803 8.48623 -0.103736 8.03247 0.0979944 7.67761L2.28959 3.8224C2.49132 3.46754 2.9381 3.34596 3.28751 3.55084L8.07788 6.35973V0.741936Z" fill="#7BA0FF"/>
</svg>
