<svg width="17" height="18" viewBox="0 0 17 18" fill="none" xmlns="http://www.w3.org/2000/svg">
<path fill-rule="evenodd" clip-rule="evenodd" d="M14 2C13.4477 2 13 2.44772 13 3C13 3.55228 13.4477 4 14 4C14.5523 4 15 3.55228 15 3C15 2.44772 14.5523 2 14 2ZM11 3C11 1.34315 12.3431 0 14 0C15.6569 0 17 1.34315 17 3C17 4.65685 15.6569 6 14 6C12.3431 6 11 4.65685 11 3Z" fill="black"/>
<path fill-rule="evenodd" clip-rule="evenodd" d="M12.8682 3.50379C13.1422 3.98331 12.9756 4.59416 12.4961 4.86817L5.49613 8.86817C5.01661 9.14218 4.40575 8.97558 4.13174 8.49607C3.85773 8.01655 4.02433 7.40569 4.50385 7.13168L11.5038 3.13168C11.9834 2.85767 12.5942 3.02427 12.8682 3.50379Z" fill="black"/>
<path fill-rule="evenodd" clip-rule="evenodd" d="M4.18628 9.41884C4.50729 8.96943 5.13184 8.86534 5.58125 9.18634L12.5813 14.1863C13.0307 14.5074 13.1348 15.1319 12.8138 15.5813C12.4927 16.0307 11.8682 16.1348 11.4188 15.8138L4.41878 10.8138C3.96937 10.4928 3.86527 9.86825 4.18628 9.41884Z" fill="black"/>
<path fill-rule="evenodd" clip-rule="evenodd" d="M3 8C2.44772 8 2 8.44772 2 9C2 9.55228 2.44772 10 3 10C3.55228 10 4 9.55228 4 9C4 8.44772 3.55228 8 3 8ZM0 9C0 7.34315 1.34315 6 3 6C4.65685 6 6 7.34315 6 9C6 10.6569 4.65685 12 3 12C1.34315 12 0 10.6569 0 9Z" fill="black"/>
<path fill-rule="evenodd" clip-rule="evenodd" d="M14 14C13.4477 14 13 14.4477 13 15C13 15.5523 13.4477 16 14 16C14.5523 16 15 15.5523 15 15C15 14.4477 14.5523 14 14 14ZM11 15C11 13.3431 12.3431 12 14 12C15.6569 12 17 13.3431 17 15C17 16.6569 15.6569 18 14 18C12.3431 18 11 16.6569 11 15Z" fill="black"/>
</svg>
