<svg width="110" height="110" viewBox="0 0 110 110" fill="none" xmlns="http://www.w3.org/2000/svg">
<g clip-path="url(#clip0_43_3)">
<path d="M72.1875 58.4375C72.1875 62.9959 70.3767 67.3676 67.1534 70.5909C63.9301 73.8142 59.5584 75.625 55 75.625C50.4416 75.625 46.0699 73.8142 42.8466 70.5909C39.6233 67.3676 37.8125 62.9959 37.8125 58.4375C37.8125 53.8791 39.6233 49.5074 42.8466 46.2841C46.0699 43.0608 50.4416 41.25 55 41.25C59.5584 41.25 63.9301 43.0608 67.1534 46.2841C70.3767 49.5074 72.1875 53.8791 72.1875 58.4375V58.4375Z" fill="#599B4F" fill-opacity="0.9"/>
<path d="M13.75 27.5C10.1033 27.5 6.60591 28.9487 4.02728 31.5273C1.44866 34.1059 0 37.6033 0 41.25L0 82.5C0 86.1467 1.44866 89.6441 4.02728 92.2227C6.60591 94.8013 10.1033 96.25 13.75 96.25H96.25C99.8967 96.25 103.394 94.8013 105.973 92.2227C108.551 89.6441 110 86.1467 110 82.5V41.25C110 37.6033 108.551 34.1059 105.973 31.5273C103.394 28.9487 99.8967 27.5 96.25 27.5H88.1925C84.5461 27.4992 81.0493 26.0501 78.4712 23.4713L72.7788 17.7787C70.2007 15.1999 66.7039 13.7508 63.0575 13.75H46.9425C43.2961 13.7508 39.7993 15.1999 37.2213 17.7787L31.5287 23.4713C28.9507 26.0501 25.4539 27.4992 21.8075 27.5H13.75ZM17.1875 41.25C16.2758 41.25 15.4015 40.8878 14.7568 40.2432C14.1122 39.5985 13.75 38.7242 13.75 37.8125C13.75 36.9008 14.1122 36.0265 14.7568 35.3818C15.4015 34.7372 16.2758 34.375 17.1875 34.375C18.0992 34.375 18.9735 34.7372 19.6182 35.3818C20.2628 36.0265 20.625 36.9008 20.625 37.8125C20.625 38.7242 20.2628 39.5985 19.6182 40.2432C18.9735 40.8878 18.0992 41.25 17.1875 41.25ZM79.0625 58.4375C79.0625 64.8193 76.5273 70.9397 72.0148 75.4523C67.5022 79.9648 61.3818 82.5 55 82.5C48.6182 82.5 42.4978 79.9648 37.9852 75.4523C33.4727 70.9397 30.9375 64.8193 30.9375 58.4375C30.9375 52.0557 33.4727 45.9353 37.9852 41.4227C42.4978 36.9102 48.6182 34.375 55 34.375C61.3818 34.375 67.5022 36.9102 72.0148 41.4227C76.5273 45.9353 79.0625 52.0557 79.0625 58.4375V58.4375Z" fill="#599B4F" fill-opacity="0.9"/>
</g>
<defs>
<clipPath id="clip0_43_3">
<rect width="110" height="110" fill="white"/>
</clipPath>
</defs>
</svg>
