<svg width="110" height="110" viewBox="0 0 110 110" fill="none" xmlns="http://www.w3.org/2000/svg">
<g clip-path="url(#clip0_43_16)">
<path d="M41.2637 37.8125C41.2637 40.5475 40.1772 43.1706 38.2433 45.1045C36.3093 47.0385 33.6863 48.125 30.9512 48.125C28.2162 48.125 25.5932 47.0385 23.6592 45.1045C21.7252 43.1706 20.6387 40.5475 20.6387 37.8125C20.6387 35.0775 21.7252 32.4544 23.6592 30.5205C25.5932 28.5865 28.2162 27.5 30.9512 27.5C33.6863 27.5 36.3093 28.5865 38.2433 30.5205C40.1772 32.4544 41.2637 35.0775 41.2637 37.8125V37.8125Z" fill="#599B4F" fill-opacity="0.9"/>
<path d="M13.7637 6.875C10.117 6.875 6.61964 8.32366 4.04102 10.9023C1.46239 13.4809 0.0137329 16.9783 0.0137329 20.625V89.375C0.0137329 93.0217 1.46239 96.5191 4.04102 99.0977C6.61964 101.676 10.117 103.125 13.7637 103.125H96.2637C99.9105 103.125 103.408 101.676 105.986 99.0977C108.565 96.5191 110.014 93.0217 110.014 89.375V20.625C110.014 16.9783 108.565 13.4809 105.986 10.9023C103.408 8.32366 99.9105 6.875 96.2637 6.875H13.7637V6.875ZM96.2637 13.75C98.0871 13.75 99.8358 14.4743 101.125 15.7636C102.414 17.053 103.139 18.8016 103.139 20.625V65.3125L77.1719 51.9269C76.5271 51.6039 75.7972 51.4919 75.0853 51.6066C74.3734 51.7214 73.7156 52.0571 73.205 52.5662L47.6987 78.0725L29.4112 65.89C28.751 65.4504 27.959 65.2527 27.1696 65.3304C26.3802 65.4081 25.6419 65.7564 25.08 66.3162L6.88873 82.5V20.625C6.88873 18.8016 7.61306 17.053 8.90237 15.7636C10.1917 14.4743 11.9404 13.75 13.7637 13.75H96.2637Z" fill="#599B4F" fill-opacity="0.9"/>
</g>
<defs>
<clipPath id="clip0_43_16">
<rect width="110" height="110" fill="white"/>
</clipPath>
</defs>
</svg>
