<?xml version="1.0" standalone="no"?>
<!DOCTYPE svg PUBLIC "-//W3C//DTD SVG 20010904//EN"
 "http://www.w3.org/TR/2001/REC-SVG-20010904/DTD/svg10.dtd">
<svg version="1.0" xmlns="http://www.w3.org/2000/svg"
 width="1570.000000pt" height="990.000000pt" viewBox="0 0 1570.000000 990.000000"
 preserveAspectRatio="xMidYMid meet">

<g transform="translate(0.000000,990.000000) scale(0.100000,-0.100000)"
fill="#000000" stroke="none">
<path d="M11687 8874 c-1 -2 -55 -14 -119 -28 -162 -34 -298 -104 -442 -229
-47 -40 -72 -72 -184 -234 -81 -117 -182 -335 -182 -391 0 -31 -27 -52 -67
-52 -51 0 -132 -31 -164 -63 -38 -37 -45 -71 -57 -282 -11 -185 -9 -233 11
-273 12 -25 90 -73 150 -92 44 -14 41 18 22 -304 -15 -256 -9 -414 19 -480 8
-20 21 -64 27 -99 12 -59 66 -183 96 -219 13 -14 12 -18 -6 -27 -11 -6 -25
-11 -31 -11 -22 0 -145 -63 -226 -116 -89 -58 -188 -151 -248 -233 -64 -87
-126 -238 -138 -338 -11 -84 -10 -92 16 -173 35 -107 63 -154 134 -225 76 -78
150 -131 237 -171 l73 -34 0 -89 c-1 -68 3 -96 16 -115 21 -33 40 -35 29 -3
-10 29 -8 176 3 187 5 5 47 -2 94 -16 105 -30 313 -72 400 -80 124 -11 287 31
362 94 63 53 97 186 63 251 -38 74 -184 165 -320 200 -99 25 -267 84 -292 102
-47 34 -83 87 -83 122 0 30 7 42 40 68 22 18 40 38 40 46 0 26 -43 12 -81 -26
-35 -34 -39 -44 -39 -88 0 -56 29 -103 90 -148 48 -36 83 -50 245 -97 179 -52
253 -87 321 -153 47 -46 54 -58 54 -92 0 -52 -41 -135 -81 -165 -63 -47 -211
-81 -313 -72 -174 16 -501 101 -621 161 -149 76 -265 189 -315 308 -30 71 -33
89 -32 164 3 145 72 301 196 436 99 110 305 242 404 261 17 3 32 10 32 15 0
15 27 10 33 -5 6 -14 87 -83 169 -143 54 -40 252 -133 341 -162 72 -23 215
-40 332 -41 75 0 290 40 340 64 41 19 152 70 195 88 19 9 61 39 93 66 64 57
54 57 175 1 46 -22 85 -39 88 -39 2 0 4 9 4 21 0 16 -18 29 -85 60 -47 21 -85
40 -85 42 0 1 24 27 53 58 64 68 150 236 167 326 6 35 17 78 25 97 18 42 43
256 46 386 2 77 -1 102 -17 132 l-19 37 -2 -47 c-5 -166 -26 -406 -39 -457 -8
-33 -22 -89 -30 -125 -31 -139 -111 -270 -238 -393 -83 -81 -103 -94 -231
-157 -77 -37 -164 -73 -192 -79 -29 -6 -77 -17 -105 -23 -32 -8 -107 -12 -191
-11 -167 3 -273 25 -391 83 -45 22 -87 40 -93 40 -14 0 -163 100 -213 143
-102 87 -180 207 -209 322 -8 28 -22 77 -31 111 -34 114 -35 379 -4 692 6 62
-5 60 195 32 92 -13 216 -22 353 -25 205 -4 391 -14 606 -35 58 -5 214 -14
347 -20 221 -9 319 -18 427 -36 37 -7 38 -6 31 17 -10 32 -11 33 -48 35 -18 1
-106 7 -197 13 -91 6 -257 15 -369 21 -112 6 -238 15 -280 20 -126 15 -427 30
-571 29 -145 -1 -156 0 -390 37 -121 20 -169 32 -220 57 -92 45 -95 54 -79
230 7 78 11 167 10 197 -4 104 65 162 204 175 97 9 561 -10 845 -35 124 -11
297 -25 385 -30 88 -6 201 -14 250 -20 88 -9 197 -19 438 -40 65 -6 136 -18
158 -27 29 -11 46 -13 62 -6 21 10 21 10 -5 27 -14 9 -57 23 -94 29 l-69 13
-8 45 c-43 237 -100 386 -213 553 -97 145 -119 172 -179 227 -115 105 -217
159 -406 215 -46 14 -193 27 -202 18z m268 -81 c114 -37 205 -88 297 -166 71
-60 138 -148 245 -322 62 -100 123 -279 148 -434 l7 -44 -123 7 c-68 3 -162
10 -209 15 -47 5 -152 15 -235 21 -82 6 -253 20 -380 30 -290 25 -502 38 -727
46 l-178 6 0 27 c0 39 53 178 93 246 136 231 240 362 333 421 16 10 41 28 55
39 48 39 193 103 269 119 205 42 244 41 405 -11z"/>
<path d="M12900 7309 c0 -17 -7 -47 -16 -66 -15 -31 -15 -36 -1 -50 14 -14 17
-13 31 15 20 39 22 69 8 105 -15 35 -22 34 -22 -4z"/>
<path d="M11087 7100 c-54 -14 -103 -50 -147 -109 -109 -145 -58 -357 106
-437 50 -24 61 -26 137 -21 45 3 94 9 109 12 l26 7 -15 -43 c-30 -90 31 -212
132 -262 69 -33 228 -54 283 -36 146 46 187 92 187 207 0 39 2 71 5 69 55 -33
92 -42 175 -42 81 0 95 3 144 30 72 40 117 95 141 173 25 81 25 127 0 195 -46
122 -155 197 -286 197 -135 0 -211 -48 -271 -172 -15 -32 -30 -58 -33 -58 -3
0 -6 41 -7 90 -3 102 -16 133 -68 154 -34 15 -92 9 -132 -13 -35 -18 -60 -78
-78 -187 -9 -54 -20 -102 -23 -106 -4 -4 -7 28 -8 70 -1 91 -30 159 -90 212
-74 65 -192 93 -287 70z m164 -37 c68 -22 152 -101 168 -159 28 -101 -2 -219
-71 -278 -85 -73 -224 -88 -307 -33 -51 34 -106 108 -122 165 -33 119 50 269
171 307 61 19 98 18 161 -2z m457 -63 c21 -19 22 -30 22 -158 0 -159 8 -195
56 -258 80 -104 100 -173 70 -232 -21 -40 -47 -61 -107 -82 -65 -24 -137 -25
-232 -4 -62 14 -78 23 -119 63 -37 37 -47 55 -53 93 -10 69 0 95 60 152 71 66
113 152 131 267 17 106 37 157 67 169 38 15 82 11 105 -10z m494 -19 c97 -49
149 -132 149 -235 0 -152 -103 -261 -258 -274 -53 -4 -70 -1 -117 22 -99 49
-160 141 -159 241 1 114 75 224 173 259 62 22 153 16 212 -13z"/>
<path d="M11136 6214 c-3 -9 -6 -17 -6 -20 0 -8 68 -38 149 -64 216 -69 459
-82 660 -36 110 25 151 45 151 72 0 21 -20 27 -38 11 -28 -24 -144 -53 -272
-67 -147 -17 -472 37 -579 96 -51 28 -57 29 -65 8z"/>
<path d="M12718 5835 c-3 -3 47 -58 112 -123 100 -101 123 -130 162 -207 58
-115 72 -176 70 -303 -2 -134 -29 -206 -118 -312 -83 -100 -119 -132 -184
-167 -30 -17 -72 -40 -92 -52 -24 -15 -45 -20 -58 -16 -14 5 -26 1 -34 -10
-15 -21 -63 -32 -216 -50 -159 -19 -228 -19 -342 0 -193 32 -254 55 -327 120
-76 69 -63 151 42 261 105 111 135 122 328 124 170 1 223 11 315 56 69 35 94
66 100 125 l4 44 -18 -52 c-18 -55 -42 -90 -42 -62 0 12 -16 8 -70 -18 -92
-44 -145 -53 -309 -53 -181 0 -210 -10 -318 -113 -89 -86 -107 -116 -118 -194
-12 -93 46 -169 175 -227 64 -29 232 -58 365 -63 127 -5 341 15 400 37 29 11
32 5 41 -104 4 -56 11 -87 20 -90 23 -9 27 13 20 114 l-7 97 33 13 c18 8 46
22 61 33 15 10 55 33 88 49 75 38 201 179 255 284 61 121 67 281 17 439 -14
44 -29 85 -33 90 -4 6 -18 28 -30 50 -36 66 -99 142 -178 216 -66 62 -98 80
-114 64z"/>
<path d="M12380 5419 c0 -6 12 -26 27 -46 l27 -35 8 28 c5 20 3 33 -9 46 -18
20 -53 24 -53 7z"/>
<path d="M1620 4860 c-155 -33 -279 -94 -311 -153 -14 -26 22 -102 58 -120 77
-40 138 -31 281 41 l94 47 166 3 c132 3 180 0 229 -13 58 -16 63 -16 100 1 53
24 73 43 73 69 0 55 -168 118 -361 135 -155 13 -229 11 -329 -10z"/>
<path d="M8890 4823 c-196 -30 -346 -104 -444 -215 -53 -60 -65 -102 -42 -146
31 -60 84 -58 152 6 61 57 152 94 289 119 76 13 98 14 108 4 8 -8 12 -54 12
-154 -1 -136 -2 -145 -30 -207 -24 -53 -30 -78 -29 -131 2 -78 18 -135 44
-149 10 -6 48 -10 83 -10 65 0 65 0 106 46 75 86 109 232 96 423 -10 159 -60
279 -147 352 -77 64 -113 76 -198 62z"/>
<path d="M5890 4751 c-25 -7 -70 -63 -70 -86 0 -7 8 -23 19 -36 18 -22 18 -24
-20 -108 -69 -158 -89 -346 -43 -408 30 -41 100 -53 168 -29 174 60 301 147
347 238 26 51 19 123 -19 188 -36 64 -146 175 -213 216 -58 35 -108 42 -169
25z m84 -252 c40 -31 76 -93 82 -142 6 -40 4 -45 -29 -74 -40 -35 -119 -68
-142 -60 -22 9 -19 95 6 186 23 83 35 111 48 111 5 0 20 -10 35 -21z"/>
<path d="M11431 4630 c-67 -25 -98 -52 -113 -102 -18 -61 2 -112 52 -132 30
-12 44 -26 59 -58 33 -73 43 -129 37 -193 -12 -110 -63 -375 -96 -500 -27 -99
-43 -212 -36 -249 8 -42 49 -66 114 -66 28 0 53 4 57 9 3 5 21 7 39 4 28 -4
38 -1 57 21 12 14 28 26 35 26 14 0 39 36 47 70 3 14 22 88 42 165 60 230 66
257 75 335 5 41 16 109 25 150 33 148 -8 288 -122 417 -101 116 -168 141 -272
103z"/>
<path d="M2043 4583 c-37 -7 -48 -29 -34 -72 6 -21 11 -48 11 -60 0 -33 -69
-240 -98 -293 -22 -41 -30 -48 -56 -48 -17 -1 -73 -9 -124 -19 -105 -21 -121
-32 -182 -121 -49 -73 -65 -122 -49 -152 36 -71 86 -77 197 -23 39 19 105 41
144 49 82 17 282 61 343 75 60 15 105 68 105 126 0 56 -15 65 -110 65 l-72 0
20 33 c57 93 89 286 61 365 -17 49 -95 87 -156 75z"/>
<path d="M1459 4506 c-51 -50 -81 -163 -86 -316 -4 -136 3 -157 63 -177 55
-18 86 -5 121 49 24 38 28 57 34 153 4 61 11 139 14 175 7 62 5 67 -24 108
-40 54 -72 56 -122 8z"/>
<path d="M10808 4424 c-32 -17 -39 -63 -13 -84 29 -24 48 -119 42 -220 -5 -91
-11 -130 -42 -265 -8 -33 -16 -73 -20 -88 -3 -15 -19 -57 -35 -93 -17 -35 -30
-71 -30 -79 0 -8 -16 -62 -35 -121 -19 -58 -37 -126 -41 -149 -5 -39 -3 -45
19 -60 32 -20 86 -12 139 22 48 30 84 101 149 292 97 283 119 382 119 536 0
179 -54 286 -158 315 -48 13 -61 12 -94 -6z"/>
<path d="M4845 4371 c-73 -21 -100 -37 -114 -68 -16 -34 -14 -55 9 -113 20
-51 27 -144 12 -154 -5 -3 -60 -19 -123 -35 -63 -17 -124 -33 -136 -37 -19 -5
-23 -1 -28 33 -14 84 -39 142 -91 212 -85 116 -125 136 -297 148 -93 6 -121
-7 -137 -67 -14 -53 -5 -81 44 -137 38 -44 41 -50 41 -107 0 -100 -12 -175
-45 -281 -60 -191 -50 -356 30 -502 62 -112 126 -141 236 -108 36 11 55 24 72
49 39 57 70 146 77 221 7 67 10 72 53 113 45 42 251 151 316 168 l28 7 -8 -94
c-17 -182 -6 -357 24 -391 27 -32 81 -23 142 23 73 54 69 49 86 110 16 59 30
230 44 524 5 105 12 235 16 291 l7 100 -34 39 c-37 41 -99 75 -139 74 -14 0
-52 -8 -85 -18z"/>
<path d="M9991 4304 c-28 -23 -32 -32 -28 -63 3 -26 -14 -88 -60 -224 -103
-307 -132 -502 -98 -662 8 -38 17 -86 20 -106 4 -29 12 -39 35 -49 36 -15 95
-7 120 15 25 22 40 18 40 -10 0 -36 23 -86 50 -110 19 -17 36 -20 119 -20 182
1 271 33 288 104 3 14 14 36 25 47 23 26 52 128 44 159 -8 33 -22 35 -115 15
-46 -10 -120 -21 -165 -25 -114 -10 -119 -4 -110 124 3 53 9 112 13 131 l7 34
84 -3 c229 -10 271 -7 335 25 48 23 61 35 67 59 3 17 9 39 13 51 4 13 -1 29
-13 45 l-20 24 -211 0 c-150 0 -213 3 -222 12 -9 9 -8 30 6 95 51 240 46 275
-47 322 -32 16 -77 31 -101 33 -36 4 -48 1 -76 -23z"/>
<path d="M8375 4244 c-16 -8 -42 -27 -57 -41 -27 -25 -27 -26 -27 -181 -1
-180 -13 -267 -45 -337 -27 -57 -127 -199 -202 -285 -67 -77 -129 -222 -121
-282 7 -55 34 -79 93 -85 27 -3 54 -10 61 -15 13 -10 201 13 292 36 31 8 92
20 136 26 44 7 141 28 215 47 90 22 178 37 265 44 247 19 295 26 315 44 14 13
33 16 77 15 89 -4 133 -1 133 10 0 6 -7 10 -15 10 -8 0 -15 5 -15 10 0 6 9 10
20 10 11 0 20 5 20 10 0 9 -23 14 -57 13 -22 -1 -14 15 10 20 12 3 -3 5 -33 4
-61 0 -85 16 -30 21 56 4 65 10 50 28 -9 10 -16 11 -20 4 -10 -16 -190 -18
-190 -2 0 7 14 15 30 19 35 7 40 22 8 24 -35 2 51 18 100 18 23 1 42 5 42 10
0 5 8 11 18 14 54 12 -250 25 -657 26 l-174 1 7 108 c6 101 -3 275 -23 442
-11 92 -40 158 -86 199 -41 36 -91 41 -140 15z m880 -834 c-3 -5 -11 -10 -16
-10 -6 0 -7 5 -4 10 3 6 11 10 16 10 6 0 7 -4 4 -10z m-42 -55 c1 -6 -15 -11
-35 -13 -43 -4 -52 15 -10 21 35 5 43 4 45 -8z m112 -35 c20 -8 19 -9 -1 -9
-12 -1 -36 -4 -53 -7 -19 -4 -31 -2 -31 4 0 6 12 13 28 15 15 2 29 4 32 5 3 0
14 -3 25 -8z m-116 -21 c-16 -10 -23 -4 -14 10 3 6 11 8 17 5 6 -4 5 -9 -3
-15z m-49 1 c0 -5 -4 -10 -10 -10 -5 0 -10 5 -10 10 0 6 5 10 10 10 6 0 10 -4
10 -10z m204 -9 c7 -11 -17 -21 -50 -21 -33 0 -30 18 4 23 15 2 30 5 34 6 4 0
9 -3 12 -8z m46 -1 c0 -5 -2 -10 -4 -10 -3 0 -8 5 -11 10 -3 6 -1 10 4 10 6 0
11 -4 11 -10z m-150 -10 c0 -5 -9 -10 -21 -10 -11 0 -17 5 -14 10 3 6 13 10
21 10 8 0 14 -4 14 -10z m180 -20 c0 -5 -2 -10 -4 -10 -3 0 -8 5 -11 10 -3 6
-1 10 4 10 6 0 11 -4 11 -10z m-63 -6 c-3 -3 -12 -4 -19 -1 -8 3 -5 6 6 6 11
1 17 -2 13 -5z m-122 -14 c-3 -5 -10 -10 -16 -10 -5 0 -9 5 -9 10 0 6 7 10 16
10 8 0 12 -4 9 -10z m-48 -26 c-3 -3 -12 -4 -19 -1 -8 3 -5 6 6 6 11 1 17 -2
13 -5z"/>
<path d="M3132 3959 c-13 -5 -41 -23 -62 -41 -33 -28 -48 -53 -90 -159 -72
-183 -83 -232 -84 -390 -1 -132 0 -137 29 -194 24 -46 40 -64 75 -83 42 -22
53 -23 150 -19 86 4 123 11 205 39 175 61 392 184 420 239 21 39 20 105 -2
113 -10 4 -79 -23 -183 -74 -91 -44 -171 -80 -177 -80 -5 0 -41 -13 -79 -28
-93 -39 -137 -45 -179 -25 -38 18 -45 35 -45 113 0 88 50 266 120 429 28 65
30 77 19 102 -12 31 -58 69 -81 68 -7 0 -23 -4 -36 -10z"/>
<path d="M6260 3823 c-56 -4 -279 -41 -340 -55 -25 -6 -61 -19 -80 -28 -19
-10 -98 -39 -175 -65 -77 -26 -146 -53 -153 -58 -26 -20 -52 -87 -52 -131 0
-33 6 -52 26 -75 33 -39 76 -41 148 -7 28 14 87 36 131 49 102 32 197 67 212
79 13 10 57 21 258 64 98 21 159 28 251 29 136 1 154 8 153 59 -1 53 -22 99
-58 123 -31 21 -44 23 -155 21 -67 -1 -141 -3 -166 -5z"/>
<path d="M12305 3784 c-11 -3 -99 -29 -195 -59 -96 -29 -194 -58 -216 -64 -83
-22 -123 -83 -90 -134 31 -46 54 -49 204 -26 117 18 159 20 287 14 235 -12
224 -13 252 20 20 23 23 34 18 64 -4 20 -9 46 -10 58 -5 33 -56 92 -94 109
-37 16 -125 26 -156 18z"/>
<path d="M1950 3650 c-19 -4 -71 -16 -115 -25 -112 -24 -276 -79 -371 -125
-133 -64 -185 -82 -220 -75 -74 13 -114 -36 -114 -140 0 -49 4 -60 29 -86 46
-46 97 -38 316 51 157 64 322 104 508 122 32 4 37 1 37 -17 0 -12 -35 -93 -79
-181 -98 -199 -108 -222 -127 -307 -25 -108 0 -157 79 -157 38 0 48 5 94 53
86 88 139 184 204 372 55 160 80 228 90 246 6 12 29 18 90 22 97 6 114 19 128
91 16 86 -13 129 -100 147 -61 13 -406 20 -449 9z"/>
<path d="M9370 3395 c7 -8 16 -15 21 -15 5 0 9 7 9 15 0 9 -9 15 -21 15 -18 0
-19 -2 -9 -15z"/>
<path d="M9448 3403 c7 -3 16 -2 19 1 4 3 -2 6 -13 5 -11 0 -14 -3 -6 -6z"/>
<path d="M9530 3335 c7 -9 15 -13 17 -11 7 7 -7 26 -19 26 -6 0 -6 -6 2 -15z"/>
<path d="M9328 3213 c7 -3 16 -2 19 1 4 3 -2 6 -13 5 -11 0 -14 -3 -6 -6z"/>
<path d="M6170 3154 c-52 -14 -111 -30 -130 -34 -79 -20 -189 -81 -263 -147
-32 -28 -44 -25 -28 5 19 36 13 61 -21 82 -18 11 -48 20 -66 20 -71 0 -112
-42 -176 -180 -94 -205 -124 -307 -117 -410 1 -9 14 -30 30 -48 25 -27 37 -32
75 -32 89 0 125 35 147 140 38 184 196 321 479 416 108 36 122 38 240 39 l124
0 15 -27 c15 -25 13 -31 -32 -122 -58 -116 -137 -207 -203 -232 -35 -13 -61
-15 -124 -10 -44 3 -91 11 -106 16 -14 6 -41 10 -59 10 -30 0 -35 -4 -41 -27
-3 -16 -12 -46 -20 -68 -22 -65 -18 -94 19 -129 40 -38 107 -62 207 -76 41 -6
99 -17 130 -26 76 -21 393 -31 444 -14 48 16 83 69 87 136 l4 49 -90 8 c-131
12 -225 27 -225 38 0 5 3 9 8 9 17 0 133 163 182 255 29 55 59 109 66 120 22
30 17 104 -9 150 -18 32 -34 45 -81 63 -146 58 -310 67 -466 26z m424 -310 c3
-8 2 -12 -4 -9 -6 3 -10 10 -10 16 0 14 7 11 14 -7z m46 -5 c-7 -11 -14 -18
-17 -15 -3 3 0 12 7 21 18 21 23 19 10 -6z m-30 -49 c0 -5 -5 -10 -11 -10 -5
0 -7 5 -4 10 3 6 8 10 11 10 2 0 4 -4 4 -10z m-76 -35 c-6 -16 -24 -21 -24 -7
0 11 11 22 21 22 5 0 6 -7 3 -15z m46 -14 c-6 -12 -17 -21 -26 -21 -8 0 -14
-7 -12 -16 2 -10 -3 -19 -9 -21 -20 -7 -15 21 7 43 40 38 45 42 48 39 2 -2 -1
-13 -8 -24z m-60 -96 c-7 -8 -17 -15 -22 -15 -6 0 -5 7 2 15 7 8 17 15 22 15
6 0 5 -7 -2 -15z m-38 -57 c-7 -7 -12 -8 -12 -2 0 14 12 26 19 19 2 -3 -1 -11
-7 -17z"/>
<path d="M11127 3152 c-10 -10 -17 -26 -17 -36 0 -25 -16 -52 -85 -141 -154
-200 -221 -400 -180 -538 20 -69 33 -76 125 -72 184 8 411 146 555 337 43 58
45 63 45 129 0 56 -6 81 -30 133 -38 79 -101 141 -136 132 -13 -3 -35 -9 -49
-12 -17 -4 -32 -1 -45 11 -19 17 -21 17 -39 1 -21 -19 -29 -12 -51 42 -10 27
-18 32 -45 32 -18 0 -39 -8 -48 -18z m125 -267 c16 -22 31 -57 35 -78 5 -36 3
-40 -53 -93 -87 -82 -128 -108 -160 -100 -24 6 -25 10 -19 43 7 40 97 227 123
256 22 25 42 18 74 -28z"/>
<path d="M8847 2959 c-34 -18 -38 -23 -32 -48 5 -22 0 -35 -22 -58 -15 -15
-67 -78 -115 -139 -122 -156 -166 -271 -136 -359 8 -23 23 -45 38 -52 34 -18
155 -8 240 19 56 18 75 31 136 93 54 55 77 86 94 131 29 77 36 193 17 257 -21
68 -78 157 -102 162 -67 13 -83 12 -118 -6z m41 -271 c21 -21 13 -72 -19 -138
-27 -53 -39 -65 -76 -82 -82 -36 -101 -10 -58 78 25 51 113 154 132 154 5 0
14 -5 21 -12z"/>
<path d="M2252 2803 c-15 -3 -29 -17 -37 -37 -8 -18 -33 -48 -57 -67 -54 -44
-205 -138 -278 -175 -30 -15 -84 -46 -120 -69 -36 -23 -96 -59 -135 -80 -67
-37 -211 -133 -375 -250 -41 -30 -112 -76 -156 -104 -108 -68 -110 -70 -89
-125 25 -65 47 -81 109 -80 58 2 145 37 215 87 25 18 80 53 121 77 41 24 127
78 190 120 63 42 151 98 195 125 226 135 526 350 558 399 21 31 22 66 3 111
-22 53 -82 81 -144 68z"/>
<path d="M2220 2387 c-14 -7 -26 -20 -28 -30 -2 -10 21 -59 51 -110 30 -51 69
-119 86 -153 43 -81 111 -149 141 -139 29 9 60 62 60 104 0 68 -150 293 -216
324 -41 20 -61 21 -94 4z"/>
<path d="M10333 1639 c-39 -12 -60 -43 -42 -65 15 -18 64 -18 147 2 123 30
122 67 -1 71 -40 1 -87 -2 -104 -8z"/>
<path d="M9431 1547 c-43 -15 -60 -39 -42 -61 17 -21 48 -20 144 3 92 22 111
35 83 57 -24 17 -136 18 -185 1z"/>
<path d="M11061 1501 c-19 -5 -35 -31 -77 -126 -62 -139 -112 -222 -148 -249
-24 -19 -26 -19 -45 -2 -27 24 -37 127 -17 182 15 45 8 64 -26 64 -25 0 -48
-51 -55 -124 -7 -81 16 -155 60 -192 64 -54 140 -7 216 136 23 44 44 80 46 80
2 0 3 -37 3 -82 0 -122 23 -164 72 -138 20 11 22 18 17 64 -4 28 2 123 13 211
17 146 17 161 2 173 -17 13 -25 14 -61 3z m-48 -168 c-10 -33 -45 -103 -50
-103 -6 0 4 36 24 83 16 37 38 53 26 20z"/>
<path d="M10403 1468 c-13 -6 -23 -16 -23 -22 0 -6 16 -43 35 -81 49 -96 63
-189 41 -276 -37 -145 -101 -226 -235 -297 -59 -31 -81 -49 -81 -63 0 -28 46
-25 138 11 151 59 249 169 297 333 32 109 -12 297 -88 380 -28 29 -48 32 -84
15z"/>
<path d="M8128 1396 c-54 -15 -78 -31 -78 -55 0 -44 43 -52 118 -22 26 11 70
22 96 26 50 8 66 25 46 50 -16 19 -114 19 -182 1z"/>
<path d="M9498 1379 c-25 -14 -23 -24 19 -107 32 -64 37 -84 41 -161 9 -181
-73 -322 -235 -406 -67 -34 -92 -55 -86 -70 7 -20 39 -19 107 5 94 32 155 71
217 138 128 141 155 330 72 512 -39 84 -88 117 -135 89z"/>
<path d="M9920 1284 c-85 -37 -131 -94 -133 -168 -2 -35 -6 -42 -25 -44 -55
-8 -28 -62 30 -62 16 0 42 -10 57 -21 82 -61 253 -31 331 57 30 35 40 74 19
74 -6 0 -28 -15 -49 -34 -66 -60 -185 -83 -219 -42 -9 11 3 22 56 57 38 23 78
52 91 63 42 37 20 109 -38 120 -74 15 -87 15 -120 0z m65 -94 c0 -15 -82 -66
-92 -57 -11 11 10 48 35 62 32 17 57 15 57 -5z"/>
<path d="M8184 1205 c-13 -20 -15 -38 -10 -88 5 -44 2 -92 -9 -153 -28 -147
-9 -224 57 -224 26 0 68 30 68 49 0 5 -9 11 -20 14 -25 7 -25 28 0 109 30 97
45 222 30 259 -25 60 -87 78 -116 34z"/>
<path d="M8637 1193 c-16 -8 -41 -32 -55 -54 -15 -21 -30 -38 -33 -39 -3 0
-11 11 -17 25 -25 55 -113 48 -128 -10 -8 -33 2 -46 34 -43 24 3 27 0 26 -27
-1 -16 -7 -66 -15 -111 -14 -89 -5 -135 32 -154 30 -16 48 0 63 54 8 28 24 84
35 123 33 124 81 191 118 167 18 -11 21 -19 49 -148 19 -90 45 -126 92 -126
42 0 82 35 82 71 0 32 -17 38 -50 17 -30 -19 -39 -2 -60 106 -20 103 -23 109
-53 144 -24 26 -76 28 -120 5z"/>
</g>
</svg>
