<svg width="19" height="20" viewBox="0 0 19 20" fill="none" xmlns="http://www.w3.org/2000/svg">
<path d="M15.6452 3.65198H12.9154V3.17399C12.9154 2.50149 12.7144 2.01399 12.3083 1.71649C12.0214 1.52149 11.6656 1.42249 11.2519 1.42249H8.19243C8.19005 1.42249 8.18815 1.42399 8.18578 1.42399C8.1834 1.42399 8.1815 1.42249 8.17913 1.42249H7.74735C6.67433 1.42249 6.08343 2.04449 6.08343 3.17399V3.65198H3.35503C3.26055 3.65198 3.16993 3.69149 3.10312 3.76182C3.03631 3.83215 2.99878 3.92753 2.99878 4.02698C2.99878 4.12644 3.03631 4.22182 3.10312 4.29215C3.16993 4.36248 3.26055 4.40198 3.35503 4.40198H3.66235L4.5867 17.2945C4.5867 18.11 5.03558 18.5775 5.81885 18.5775H13.1628C13.9281 18.5775 14.3774 18.1125 14.394 17.3225L15.3189 4.40198H15.6447C15.6915 4.40202 15.7378 4.39235 15.7811 4.37354C15.8243 4.35472 15.8636 4.32713 15.8967 4.29233C15.9298 4.25753 15.9561 4.21621 15.974 4.17072C15.9919 4.12524 16.0012 4.07648 16.0012 4.02723C16.0012 3.97799 15.992 3.92922 15.9742 3.88371C15.9563 3.8382 15.9301 3.79684 15.897 3.762C15.864 3.72715 15.8247 3.6995 15.7815 3.68063C15.7383 3.66175 15.692 3.65202 15.6452 3.65198ZM14.5517 5.13998H4.42995L4.37723 4.40198H14.6045L14.5517 5.13998ZM6.7964 3.17399C6.7964 2.46249 7.07191 2.17249 7.74783 2.17249H11.2524C11.5269 2.17249 11.7526 2.23099 11.9122 2.33899C12.1083 2.48249 12.2033 2.75549 12.2033 3.17399V3.65198H6.7964V3.17399ZM13.683 17.286C13.6739 17.691 13.5428 17.8275 13.1628 17.8275H5.81885C5.4303 17.8275 5.2992 17.693 5.29825 17.266L4.48363 5.88948H14.4976L13.683 17.286Z" fill="white"/>
<path d="M8.26555 6.48451C8.21882 6.48626 8.17288 6.49768 8.13034 6.51812C8.08781 6.53857 8.04952 6.56764 8.01767 6.60368C7.98582 6.63972 7.96103 6.68201 7.94471 6.72814C7.9284 6.77427 7.92089 6.82333 7.9226 6.87251L8.257 16.5495C8.26032 16.6464 8.29918 16.7382 8.36543 16.8056C8.43168 16.8731 8.52016 16.9108 8.6123 16.911L8.6256 16.9105C8.67233 16.9088 8.71828 16.8974 8.76081 16.8769C8.80335 16.8565 8.84164 16.8274 8.87349 16.7913C8.90534 16.7553 8.93013 16.713 8.94644 16.6669C8.96275 16.6208 8.97027 16.5717 8.96855 16.5225L8.63463 6.84501C8.6275 6.63801 8.46695 6.46651 8.26555 6.48451Z" fill="white"/>
<path d="M6.05728 6.48499C5.96306 6.49191 5.87531 6.53794 5.81331 6.61295C5.75132 6.68795 5.72016 6.78581 5.72668 6.88499L6.35796 16.562C6.36409 16.6567 6.40414 16.7453 6.47001 16.8101C6.53587 16.8749 6.62264 16.911 6.71278 16.911L6.73796 16.91C6.83218 16.9031 6.91993 16.857 6.98193 16.782C7.04392 16.707 7.07508 16.6092 7.06856 16.51L6.43728 6.83299C6.42998 6.73411 6.38605 6.6422 6.31496 6.5771C6.24388 6.512 6.15133 6.47892 6.05728 6.48499Z" fill="white"/>
<path d="M10.7047 6.48451C10.5057 6.46451 10.3428 6.63851 10.3361 6.84551L10.0012 16.5225C9.99946 16.5717 10.0069 16.6208 10.0232 16.667C10.0395 16.7131 10.0643 16.7554 10.0962 16.7915C10.128 16.8275 10.1663 16.8566 10.2089 16.877C10.2515 16.8975 10.2974 16.9088 10.3442 16.9105L10.3575 16.911C10.4496 16.9108 10.5381 16.873 10.6044 16.8056C10.6706 16.7382 10.7095 16.6464 10.7128 16.5495L11.0477 6.87251C11.0494 6.82331 11.042 6.77422 11.0257 6.72806C11.0094 6.6819 10.9846 6.63958 10.9527 6.60353C10.9209 6.56748 10.8826 6.53841 10.84 6.51799C10.7974 6.49756 10.7515 6.48619 10.7047 6.48451Z" fill="white"/>
<path d="M12.9128 6.48499C12.8187 6.47905 12.7263 6.51218 12.6552 6.57726C12.5841 6.64233 12.5402 6.73416 12.5328 6.83299L11.9015 16.51C11.895 16.6092 11.9261 16.707 11.9881 16.782C12.0501 16.857 12.1379 16.9031 12.2321 16.91L12.2573 16.911C12.3474 16.9108 12.4341 16.8748 12.4999 16.81C12.5658 16.7452 12.6058 16.6566 12.6121 16.562L13.2434 6.88499C13.2499 6.78581 13.2187 6.68796 13.1567 6.61295C13.0947 6.53794 13.007 6.49192 12.9128 6.48499Z" fill="white"/>
</svg>
