<svg width="115" height="113" viewBox="0 0 115 113" fill="none" xmlns="http://www.w3.org/2000/svg">
<g clip-path="url(#clip0_86_145)">
<path d="M38.9806 -7.98311e-05C37.9559 0.191422 37.0331 0.732603 36.3751 1.52787C35.7171 2.32313 35.3663 3.32131 35.3847 4.34607V8.69223H19.4881C15.9497 8.69223 13.2693 11.326 13.2693 14.8029V106.481C13.2693 110.392 15.9497 113 19.4881 113H95.0962C98.6347 113 101.315 110.366 101.315 106.889V14.8029C101.757 11.326 99.0504 8.69223 95.512 8.69223H79.6154V4.34607C79.6154 3.1934 79.1494 2.08794 78.32 1.27288C77.4905 0.457817 76.3654 -7.98311e-05 75.1924 -7.98311e-05H39.8078C39.6692 -0.00648381 39.5305 -0.00648381 39.392 -7.98311e-05C39.2535 -0.00648381 39.1147 -0.00648381 38.9762 -7.98311e-05H38.9806ZM44.2308 8.69223H70.7693V17.3845H44.2308V8.69223ZM22.1154 17.3845H35.3847V21.7307C35.3847 22.8834 35.8507 23.9888 36.6802 24.8039C37.5097 25.6189 38.6347 26.0768 39.8078 26.0768H75.1924C76.3654 26.0768 77.4905 25.6189 78.32 24.8039C79.1494 23.9888 79.6154 22.8834 79.6154 21.7307V17.3845H92.8847V104.308H22.1154V17.3845ZM30.9616 39.1153V56.4999H48.6539V39.1153H30.9616ZM35.3847 43.4615H44.2308V52.1538H35.3847V43.4615ZM57.5001 43.4615V52.1538H84.0385V43.4615H57.5001ZM30.9616 65.1922V82.5768H48.6539V65.1922H30.9616ZM57.5001 69.5384V78.2307H84.0385V69.5384H57.5001Z" fill="#599B4F"/>
</g>
<defs>
<clipPath id="clip0_86_145">
<rect width="115" height="113" fill="white"/>
</clipPath>
</defs>
</svg>
